<?xml version="1.0" encoding="UTF-8"?>
<svg width="233px" height="64px" viewBox="0 0 233 64" version="1.1" xmlns="http://www.w3.org/2000/svg" xmlns:xlink="http://www.w3.org/1999/xlink">
    <g id="logo-hugo-serif" fill-rule="nonzero">
        <path id="Hugo" fill="#2F2F41" d="M36.816,52 C115.471818,50.512 119.327818,39.616 C119.327818,36.448 118.831818,33.904 117.839818,31.984 C116.847818,30.064 115.471818,28.672 113.711818,27.808 C111.951818,26.944 109.903818,26.512 107.567818,26.512 C105.295818,26.512 103.271818,26.944 101.495818,27.808 C99.7198184,28.672 98.3278184,30.064 97.3198184,31.984 C96.3118184,33.904 95.8078184,36.448 95.8078184,39.616 C95.8078184,42.784 96.3118184,45.32 97.3198184,47.224 C98.3278184,49.128 99.7198184,50.512 101.495818,51.376 C103.271818,52.24 105.295818,52.672 107.567818,52.672 Z M107.567818,51.712 C106.287818,51.712 105.215818,50.768 104.351818,48.88 C103.487818,46.992 103.055818,43.904 103.055818,39.616 C103.055818,35.328 103.487818,32.232 104.351818,30.328 C105.215818,28.424 106.287818,27.472 107.567818,27.472 C108.879818,27.472 109.959818,28.424 110.807818,30.328 C111.655818,32.232 112.079818,35.328 112.079818,39.616 C112.079818,43.904 111.655818,46.992 110.807818,48.88 C109.959818,50.768 108.879818,51.712 107.567818,51.712 Z"></path>
        <path id="Serif" fill="#f24088" d="142.064,51.64 C147.512,47.168 148.064,45.424 148.064,43.312 C148.064,41.584 147.696,40.096 146.96,38.848 C146.224,37.6 145.248,36.48 144.032,35.488 C142.816,34.496 141.44,33.504 139.904,32.512 C138.144,31.296 136.648,30.256 135.416,29.392 C134.184,28.528 133.248,27.64 132.608,26.728 C131.968,25.816 131.648,24.72 131.648,23.44 C131.648,21.904 132.144,20.704 133.136,19.84 C134.128,18.976 135.392,18.544 136.928,18.544 C138.624,18.544 140.056,19.048 141.224,20.056 C142.392,21.064 143.296,22.352 143.936,23.92 C144.576,25.488 144.96,27.104 145.088,28.768 L145.088,28.768 L146.192,28.768 C146.192,26.528 146.2,24.72 146.216,23.344 C146.232,21.968 146.264,20.856 146.312,20.008 C146.36,19.16 146.4,18.432 146.432,17.824 L146.432,17.824 L145.328,17.824 C145.136,19.232 144.784,19.936 144.272,19.936 C144.048,19.936 143.816,19.88 143.576,19.768 C143.336,19.656 143.024,19.488 142.64,19.264 C141.904,18.816 141.024,18.392 140,17.992 C138.976,17.592 137.52,17.392 135.632,17.392 C133.776,17.392 132.024,17.704 130.376,18.328 C128.728,18.952 127.4,19.912 126.392,21.208 C125.384,22.504 124.88,24.16 124.88,26.176 C124.88,27.936 125.272,29.456 126.056,30.736 C126.84,32.016 127.888,33.152 129.2,34.144 C130.512,35.136 131.92,36.128 133.424,37.12 C135.536,38.496 137.264,39.832 138.608,41.128 C139.952,42.424 140.624,44.064 140.624,46.048 C140.624,47.84 140.048,49.184 138.896,50.08 C137.744,50.976 136.336,51.424 134.672,51.424 C132.624,51.424 130.984,50.864 129.752,49.744 C128.52,48.624 127.608,47.144 127.016,45.304 C126.424,43.464 126.064,41.488 125.936,39.376 L125.936,39.376 L124.832,39.376 C124.832,41.904 124.824,43.992 124.808,45.64 C124.792,47.288 124.776,48.624 124.76,49.648 C124.744,50.672 124.704,51.568 124.64,52.336 L124.64,52.336 L125.744,52.336 C125.936,50.928 126.288,50.224 126.8,50.224 C127.184,50.224 127.728,50.448 128.432,50.896 C129.232,51.312 130.224,51.712 131.408,52.096 C132.592,52.48 134.176,52.672 136.16,52.672 Z M162.886314,52.672 C164.678314,52.672 166.214314,52.304 167.494314,51.568 C168.774314,50.832 169.830314,49.888 170.662314,48.736 C171.494314,47.584 172.102314,46.4 172.486314,45.184 L172.486314,45.184 L171.622314,44.896 C170.630314,46.496 169.566314,47.536 168.430314,48.016 C167.294314,48.496 166.246314,48.736 165.286314,48.736 C164.294314,48.736 163.318314,48.424 162.358314,47.8 C161.398314,47.176 160.606314,46.176 159.982314,44.8 C159.358314,43.424 159.046314,41.632 159.046314,39.424 C159.046314,38.976 159.054314,38.544 159.070314,38.128 C159.086314,37.712 159.110314,37.312 159.142314,36.928 L159.124,37.168 L172.582314,37.168 C172.582314,33.5318519 171.840476,30.87493 170.3568,29.1972346 L170.182314,29.008 C168.582314,27.344 166.374314,26.512 163.558314,26.512 C161.286314,26.512 159.262314,27 157.486314,27.976 C155.710314,28.952 154.318314,30.432 153.310314,32.416 C152.302314,34.4 151.798314,36.88 151.798314,39.856 C151.798314,42.768 152.270314,45.168 153.214314,47.056 C154.158314,48.944 155.462314,50.352 157.126314,51.28 C158.790314,52.208 160.710314,52.672 162.886314,52.672 Z M159.020953,36.2195236 C159.199948,33.1746238 159.664401,30.9787826 160.414314,29.632 C161.198314,28.224 162.150314,27.52 163.270314,27.52 C164.070314,27.52 164.710314,27.92 165.190314,28.72 C165.670314,29.52 166.022314,30.584 166.246314,31.912 C166.470314,33.24 166.566314,34.688 166.534314,36.256 L166.534314,36.256 L159.018,36.256 L159.020953,36.2195236 Z M189.871918,52 L189.871918,50.992 C188.367918,50.992 187.239918,50.72 186.487918,50.176 C185.735918,49.632 185.359918,48.592 185.359918,47.056 L185.359918,47.056 L185.359918,34.336 C185.359918,33.472 185.551918,32.592 185.935918,31.696 C186.319918,30.8 186.839918,30.024 187.495918,29.368 C188.151918,28.712 188.895918,28.32 189.727918,28.192 C190.175918,28.032 190.623918,28.016 191.071918,28.144 C190.463918,28.56 189.959918,29.064 189.559918,29.656 C189.159918,30.248 188.959918,30.992 188.959918,31.888 C188.959918,32.816 189.271918,33.56 189.895918,34.12 C190.519918,34.68 191.391918,34.96 192.511918,34.96 C193.631918,34.96 194.535918,34.584 195.223918,33.832 C195.911918,33.08 196.255918,32.112 196.255918,30.928 C196.255918,30.192 196.103918,29.488 195.799918,28.816 C195.495918,28.144 195.023918,27.592 194.383918,27.16 C193.743918,26.728 192.911918,26.512 191.887918,26.512 C190.863918,26.512 189.935918,26.712 189.103918,27.112 C188.271918,27.512 187.535918,28.064 186.895918,28.768 C186.255918,29.472 185.743918,30.256 185.359918,31.12 L185.359918,31.12 L185.359918,26.656 C184.367918,26.88 183.287918,27.048 182.119918,27.16 C180.951918,27.272 179.695918,27.328 178.351918,27.328 C177.391918,27.328 176.399918,27.28 175.375918,27.184 L175.375918,27.184 L175.375918,28.192 C176.559918,28.192 177.367918,28.536 177.799918,29.224 C178.231918,29.912 178.447918,30.976 178.447918,32.416 L178.447918,32.416 L178.447918,47.536 C178.447918,48.88 178.215918,49.792 177.751918,50.272 C177.287918,50.752 176.495918,50.992 175.375918,50.992 L175.375918,50.992 L175.375918,52 C176.047918,51.968 177.039918,51.928 178.351918,51.88 C179.663918,51.832 180.959918,51.808 182.239918,51.808 C183.775918,51.808 185.247918,51.832 186.655918,51.88 C188.063918,51.928 189.135918,51.968 189.871918,52 L189.871918,52 Z M204.012676,22.192 C205.356676,22.192 206.420676,21.864 207.204676,21.208 C207.988676,20.552 208.380676,19.648 208.380676,18.496 C208.380676,17.344 207.988676,16.44 207.204676,15.784 C206.420676,15.128 205.356676,14.8 204.012676,14.8 C202.668676,14.8 201.604676,15.128 200.820676,15.784 C200.036676,16.44 199.644676,17.344 199.644676,18.496 C199.644676,19.648 200.036676,20.552 200.820676,21.208 C201.604676,21.864 202.668676,22.192 204.012676,22.192 Z M210.828676,52 L210.828676,50.992 C209.708676,50.992 208.916676,50.752 208.452676,50.272 C207.988676,49.792 207.756676,48.88 207.756676,47.536 L207.756676,47.536 L207.756676,26.656 C206.764676,26.88 205.684676,27.048 204.516676,27.16 C203.348676,27.272 202.092676,27.328 200.748676,27.328 C199.788676,27.328 198.796676,27.28 197.772676,27.184 L197.772676,27.184 L197.772676,28.192 C198.956676,28.192 199.764676,28.536 200.196676,29.224 C200.628676,29.912 200.844676,30.976 200.844676,32.416 L200.844676,32.416 L200.844676,47.536 C200.844676,48.88 200.612676,49.792 200.148676,50.272 C199.684676,50.752 198.892676,50.992 197.772676,50.992 L197.772676,50.992 L197.772676,52 C198.412676,51.968 199.372676,51.928 200.652676,51.88 C201.932676,51.832 203.196676,51.808 204.444676,51.808 C205.692676,51.808 206.924676,51.832 208.140676,51.88 C209.356676,51.928 210.252676,51.968 210.828676,52 L210.828676,52 Z M227.398232,52 L227.398232,50.992 C225.990232,50.992 224.886232,50.728 224.086232,50.2 C223.286232,49.672 222.886232,48.624 222.886232,47.056 L222.886232,47.056 L222.886232,28.192 L228.022232,28.192 L228.022232,27.232 L222.886232,27.232 L222.886232,22.864 C222.886232,20.976 222.950232,19.576 223.078232,18.664 C223.206232,17.752 223.446232,17.056 223.798232,16.576 C224.054232,16.192 224.390232,15.888 224.806232,15.664 C225.222232,15.44 225.750232,15.328 226.390232,15.328 C226.870232,15.328 227.254232,15.392 227.542232,15.52 C227.830232,15.648 228.022232,15.808 228.118232,16 C227.190232,16.256 226.486232,16.704 226.006232,17.344 C225.526232,17.984 225.286232,18.72 225.286232,19.552 C225.286232,20.608 225.630232,21.44 226.318232,22.048 C227.006232,22.656 227.878232,22.96 228.934232,22.96 C229.958232,22.96 230.782232,22.624 231.406232,21.952 C232.030232,21.28 232.342232,20.512 232.342232,19.648 C232.342232,18.848 232.182232,18.136 231.862232,17.512 C231.542232,16.888 231.158232,16.4 230.710232,16.048 C230.070232,15.568 229.334232,15.184 228.502232,14.896 C227.670232,14.608 226.694232,14.464 225.574232,14.464 C224.230232,14.464 222.974232,14.696 221.806232,15.16 C220.638232,15.624 219.702232,16.192 218.998232,16.864 C217.878232,17.952 217.094232,19.24 216.646232,20.728 C216.198232,22.216 215.974232,24.384 215.974232,27.232 L215.974232,27.232 L212.710232,27.232 L212.710232,28.192 L215.974232,28.192 L215.974232,47.536 C215.974232,48.88 215.742232,49.792 215.278232,50.272 C214.814232,50.752 214.022232,50.992 212.902232,50.992 L212.902232,50.992 L212.902232,52 C213.510232,51.968 214.398232,51.928 215.566232,51.88 C216.734232,51.832 217.926232,51.808 219.142232,51.808 C220.806232,51.808 222.390232,51.832 223.894232,51.88 C225.398232,51.928 226.566232,51.968 227.398232,52 L227.398232,52 Z"></path>
    </g>
</svg>